<?xml version="1.0" encoding="UTF-8" standalone="no"?><svg xmlns="http://www.w3.org/2000/svg" xmlns:xlink="http://www.w3.org/1999/xlink" contentScriptType="application/ecmascript" contentStyleType="text/css" height="436px" preserveAspectRatio="none" style="width:598px;height:436px;" version="1.1" viewBox="0 0 598 436" width="598px" zoomAndPan="magnify"><defs/><g><!--MD5=[ed1d20ea533a2a0e7df5ba3c35e56ced]
cluster Controllers--><path d="M25,24 L99,24 A4.5,4.5 0 0 1 102,27 L109,44.4844 L583,44.4844 A3,3 0 0 1 586,47.4844 L586,112 A3,3 0 0 1 583,115 L25,115 A3,3 0 0 1 22,112 L22,27 A3,3 0 0 1 25,24 " fill="#FFFFFF" style="stroke: #000000; stroke-width: 1.5;"/><line style="stroke: #000000; stroke-width: 1.5;" x1="22" x2="109" y1="44.4844" y2="44.4844"/><text fill="#000000" font-family="Tahoma, sans-serif" font-size="12" font-weight="bold" lengthAdjust="spacingAndGlyphs" textLength="74" x="26" y="38.0059">Controllers</text><!--MD5=[5edfa7121972f9ed9fbf0a4c690ab7d6]
cluster Domain entities--><path d="M139,242 L244,242 A4.5,4.5 0 0 1 247,245 L254,262.4844 L254,262.4844 A3,3 0 0 1 257,265.4844 L257,314 A3,3 0 0 1 254,317 L139,317 A3,3 0 0 1 136,314 L136,245 A3,3 0 0 1 139,242 " fill="#FFFFFF" style="stroke: #000000; stroke-width: 1.5;"/><line style="stroke: #000000; stroke-width: 1.5;" x1="136" x2="254" y1="262.4844" y2="262.4844"/><text fill="#000000" font-family="Tahoma, sans-serif" font-size="12" font-weight="bold" lengthAdjust="spacingAndGlyphs" textLength="105" x="140" y="256.0059">Domain entities</text><!--MD5=[3fe454f5ee662415b72b39d1d24abdcd]
cluster Domain value objects--><path d="M288,341 L433,341 A4.5,4.5 0 0 1 436,344 L443,361.4844 L443,361.4844 A3,3 0 0 1 446,364.4844 L446,421 A3,3 0 0 1 443,424 L288,424 A3,3 0 0 1 285,421 L285,344 A3,3 0 0 1 288,341 " fill="#FFFFFF" style="stroke: #000000; stroke-width: 1.5;"/><line style="stroke: #000000; stroke-width: 1.5;" x1="285" x2="443" y1="361.4844" y2="361.4844"/><text fill="#000000" font-family="Tahoma, sans-serif" font-size="12" font-weight="bold" lengthAdjust="spacingAndGlyphs" textLength="145" x="289" y="355.0059">Domain value objects</text><!--MD5=[600c2d25b6889bd4e9f6b335204b22ae]
cluster Repositories--><path d="M94,139 L178,139 A4.5,4.5 0 0 1 181,142 L188,159.4844 L244,159.4844 A3,3 0 0 1 247,162.4844 L247,215 A3,3 0 0 1 244,218 L94,218 A3,3 0 0 1 91,215 L91,142 A3,3 0 0 1 94,139 " fill="#FFFFFF" style="stroke: #000000; stroke-width: 1.5;"/><line style="stroke: #000000; stroke-width: 1.5;" x1="91" x2="188" y1="159.4844" y2="159.4844"/><text fill="#000000" font-family="Tahoma, sans-serif" font-size="12" font-weight="bold" lengthAdjust="spacingAndGlyphs" textLength="84" x="95" y="153.0059">Repositories</text><!--MD5=[6326b81c113285a9d7424a8f38b27174]
cluster Usecases--><path d="M296,140.5 L361,140.5 A4.5,4.5 0 0 1 364,143.5 L371,160.9844 L544,160.9844 A3,3 0 0 1 547,163.9844 L547,213.5 A3,3 0 0 1 544,216.5 L296,216.5 A3,3 0 0 1 293,213.5 L293,143.5 A3,3 0 0 1 296,140.5 " fill="#FFFFFF" style="stroke: #000000; stroke-width: 1.5;"/><line style="stroke: #000000; stroke-width: 1.5;" x1="293" x2="371" y1="160.9844" y2="160.9844"/><text fill="#000000" font-family="Tahoma, sans-serif" font-size="12" font-weight="bold" lengthAdjust="spacingAndGlyphs" textLength="65" x="297" y="154.5059">Usecases</text><ellipse cx="491.1593" cy="78.2319" fill="#F8F8F8" rx="79.1593" ry="18.2319" style="stroke: #383838; stroke-width: 0.5;"/><text fill="#000000" font-family="Tahoma, sans-serif" font-size="12" font-weight="bold" lengthAdjust="spacingAndGlyphs" textLength="134" x="424.1593" y="81.974">AuthorizerController</text><ellipse cx="130.1823" cy="77.8365" fill="#F8F8F8" rx="92.1823" ry="20.8365" style="stroke: #383838; stroke-width: 0.5;"/><text fill="#000000" font-family="Tahoma, sans-serif" font-size="12" font-weight="bold" lengthAdjust="spacingAndGlyphs" textLength="163" x="48.6823" y="81.5786">CreateRecordsController</text><ellipse cx="317.1466" cy="78.0293" fill="#F8F8F8" rx="83.1466" ry="19.0293" style="stroke: #383838; stroke-width: 0.5;"/><text fill="#000000" font-family="Tahoma, sans-serif" font-size="12" font-weight="bold" lengthAdjust="spacingAndGlyphs" textLength="143" x="245.6466" y="81.7715">GetRecordsController</text><ellipse cx="196.0122" cy="288.242" fill="#F8F8F8" rx="44.0122" ry="13.242" style="stroke: #383838; stroke-width: 0.5;"/><text fill="#000000" font-family="Tahoma, sans-serif" font-size="12" lengthAdjust="spacingAndGlyphs" textLength="58" x="167.0122" y="291.9842">Catalogist</text><!--MD5=[f00eee0d8599795d6915a015e1c4223a]
entity _Manifest--><rect fill="#F8F8F8" height="34.4844" rx="3" ry="3" style="stroke: #000000; stroke-width: 0.5;" width="68" x="331" y="374"/><text fill="#000000" font-family="Tahoma, sans-serif" font-size="12" lengthAdjust="spacingAndGlyphs" textLength="48" x="341" y="396.0059">Manifest</text><ellipse cx="168.9363" cy="186.7873" fill="#F8F8F8" rx="61.9363" ry="14.7873" style="stroke: #383838; stroke-width: 0.5;"/><text fill="#000000" font-family="Tahoma, sans-serif" font-size="12" lengthAdjust="spacingAndGlyphs" textLength="93" x="122.4363" y="190.5294">DynamoDbRepo</text><ellipse cx="364.9903" cy="186.9981" fill="#F8F8F8" rx="55.4903" ry="13.4981" style="stroke: #383838; stroke-width: 0.5;"/><text fill="#000000" font-family="Tahoma, sans-serif" font-size="12" lengthAdjust="spacingAndGlyphs" textLength="76" x="326.9903" y="190.7402">createRecord</text><ellipse cx="481.9619" cy="187.242" fill="#F8F8F8" rx="48.9619" ry="13.242" style="stroke: #383838; stroke-width: 0.5;"/><text fill="#000000" font-family="Tahoma, sans-serif" font-size="12" lengthAdjust="spacingAndGlyphs" textLength="65" x="449.4619" y="190.9842">getRecords</text><!--MD5=[a5ecdc7eb1b040d2c8448e1448da678c]
link createRecord to _Manifest--><path d="M365,200.636 C365,234.348 365,326.706 365,368.7056 " fill="none" id="createRecord-&gt;_Manifest" style="stroke: #000000; stroke-width: 0.5;"/><polygon fill="#000000" points="365,373.8096,369,364.8096,365,368.8096,361,364.8096,365,373.8096" style="stroke: #000000; stroke-width: 0.5;"/><!--MD5=[b87216b48fc0c36f6d11edb873a593b1]
link <b>CreateRecordsController</b> to Catalogist--><path d="M113.103,98.86 C106.388,108.022 99.4491,119.422 96,131 C83.9452,171.465 75.3318,189.182 96,226 C110.034,250.999 138.935,266.963 162.075,276.262 " fill="none" id="&lt;b&gt;CreateRecordsController&lt;/b&gt;-&gt;Catalogist" style="stroke: #000000; stroke-width: 1.0;"/><polygon fill="#000000" points="166.918,278.146,159.9824,271.1533,162.2587,276.332,157.08,278.6082,166.918,278.146" style="stroke: #000000; stroke-width: 1.0;"/><!--MD5=[6a2cb0f25331b1df057bba6a8f20f06b]
link <b>CreateRecordsController</b> to createRecord--><path d="M169.599,97.03 C216.579,118.421 293.8,153.581 335.717,172.667 " fill="none" id="&lt;b&gt;CreateRecordsController&lt;/b&gt;-&gt;createRecord" style="stroke: #000000; stroke-width: 1.0;"/><polygon fill="#000000" points="340.403,174.8,333.8693,167.4304,335.8524,172.7283,330.5545,174.7114,340.403,174.8" style="stroke: #000000; stroke-width: 1.0;"/><!--MD5=[59926a0ca8a26532713c4245530c81f6]
link <b>CreateRecordsController</b> to DynamoDbRepo--><path d="M137.336,99.126 C144.395,118.493 154.995,147.576 161.955,166.671 " fill="none" id="&lt;b&gt;CreateRecordsController&lt;/b&gt;-&gt;DynamoDbRepo" style="stroke: #000000; stroke-width: 1.0;"/><polygon fill="#000000" points="163.815,171.776,164.4922,161.9505,162.1033,167.0781,156.9756,164.6892,163.815,171.776" style="stroke: #000000; stroke-width: 1.0;"/><!--MD5=[5f0bc2a7864ecef9908d7ec658139033]
link <b>GetRecordsController</b> to Catalogist--><path d="M308.965,97.199 C296.182,125.532 269.804,181.549 242,226 C231.977,242.025 218.859,259.11 209.198,271.11 " fill="none" id="&lt;b&gt;GetRecordsController&lt;/b&gt;-&gt;Catalogist" style="stroke: #000000; stroke-width: 1.0;"/><polygon fill="#000000" points="205.807,275.29,214.5844,270.8227,208.9579,271.4078,208.3729,265.7813,205.807,275.29" style="stroke: #000000; stroke-width: 1.0;"/><!--MD5=[cb58df599941a0b45080afb2d116f019]
link <b>GetRecordsController</b> to DynamoDbRepo--><path d="M292.892,96.43 C264.902,116.666 219.087,149.789 191.708,169.583 " fill="none" id="&lt;b&gt;GetRecordsController&lt;/b&gt;-&gt;DynamoDbRepo" style="stroke: #000000; stroke-width: 1.0;"/><polygon fill="#000000" points="187.478,172.641,197.1151,170.6097,191.53,169.7116,192.4281,164.1265,187.478,172.641" style="stroke: #000000; stroke-width: 1.0;"/><!--MD5=[0f9633652e99d048b56fb93d38cc1101]
link <b>GetRecordsController</b> to getRecords--><path d="M348.785,95.631 C365.611,104.2 386.727,114.588 406,123 C415.154,126.995 418.617,125.571 427,131 C443.497,141.684 459.014,157.997 469.332,170.086 " fill="none" id="&lt;b&gt;GetRecordsController&lt;/b&gt;-&gt;getRecords" style="stroke: #000000; stroke-width: 1.0;"/><polygon fill="#000000" points="472.626,174.009,469.9043,164.5437,469.4117,170.179,463.7764,169.6865,472.626,174.009" style="stroke: #000000; stroke-width: 1.0;"/><script type="text/plantuml"><![CDATA[MD5=[da663d432852968c236c06ca12bda8fe]
@startuml

scale max 1920 width
top to bottom direction

skinparam nodesep 12
skinparam ranksep 24
skinparam monochrome true
skinparam shadowing false
skinparam defaultFontName Tahoma
skinparam defaultFontSize 12
skinparam roundCorner 6
skinparam dpi 150
skinparam arrowColor black
skinparam arrowThickness 0.5
skinparam packageTitleAlignment left

skinparam usecase {
  borderThickness 0.5
}

skinparam rectangle {
  borderThickness 0.5
}

skinparam component {
  borderThickness 1
}


package "Controllers" {
  (<b>AuthorizerController</b>)
  (<b>CreateRecordsController</b>)
  (<b>GetRecordsController</b>)
}

package "Domain entities" {
  (Catalogist)
}

package "Domain value objects" {
  rectangle "Manifest" as _Manifest
}

package "Repositories" {
  (DynamoDbRepo)
}

package "Usecases" {
  (createRecord)
  (getRecords)
}

(createRecord) ---> _Manifest
(<b>CreateRecordsController</b>) ---[thickness=1]> (Catalogist)
(<b>CreateRecordsController</b>) --[thickness=1]> (createRecord)
(<b>CreateRecordsController</b>) --[thickness=1]> (DynamoDbRepo)
(<b>GetRecordsController</b>) ---[thickness=1]> (Catalogist)
(<b>GetRecordsController</b>) --[thickness=1]> (DynamoDbRepo)
(<b>GetRecordsController</b>) --[thickness=1]> (getRecords)

@enduml


' View and edit on https://arkit.pro
]]></script></g></svg>