<?xml version="1.0" encoding="UTF-8" standalone="no"?><svg xmlns="http://www.w3.org/2000/svg" xmlns:xlink="http://www.w3.org/1999/xlink" contentScriptType="application/ecmascript" contentStyleType="text/css" height="435px" preserveAspectRatio="none" style="width:646px;height:435px;" version="1.1" viewBox="0 0 646 435" width="646px" zoomAndPan="magnify"><defs/><g><!--MD5=[ed1d20ea533a2a0e7df5ba3c35e56ced]
cluster Controllers--><path d="M25,24 L107,24 A4.5,4.5 0 0 1 110,27 L117,43.9688 L631,43.9688 A3,3 0 0 1 634,46.9688 L634,114 A3,3 0 0 1 631,117 L25,117 A3,3 0 0 1 22,114 L22,27 A3,3 0 0 1 25,24 " fill="#FFFFFF" style="stroke: #000000; stroke-width: 1.5;"/><line style="stroke: #000000; stroke-width: 1.5;" x1="22" x2="117" y1="43.9688" y2="43.9688"/><text fill="#000000" font-family="Tahoma, sans-serif" font-size="12" font-weight="bold" lengthAdjust="spacingAndGlyphs" textLength="82" x="26" y="37.1387">Controllers</text><!--MD5=[5edfa7121972f9ed9fbf0a4c690ab7d6]
cluster Domain entities--><path d="M153,243 L267,243 A4.5,4.5 0 0 1 270,246 L277,262.9688 L277,262.9688 A3,3 0 0 1 280,265.9688 L280,314 A3,3 0 0 1 277,317 L153,317 A3,3 0 0 1 150,314 L150,246 A3,3 0 0 1 153,243 " fill="#FFFFFF" style="stroke: #000000; stroke-width: 1.5;"/><line style="stroke: #000000; stroke-width: 1.5;" x1="150" x2="277" y1="262.9688" y2="262.9688"/><text fill="#000000" font-family="Tahoma, sans-serif" font-size="12" font-weight="bold" lengthAdjust="spacingAndGlyphs" textLength="114" x="154" y="256.1387">Domain entities</text><!--MD5=[3fe454f5ee662415b72b39d1d24abdcd]
cluster Domain value objects--><path d="M308,341 L462,341 A4.5,4.5 0 0 1 465,344 L472,360.9688 L472,360.9688 A3,3 0 0 1 475,363.9688 L475,420 A3,3 0 0 1 472,423 L308,423 A3,3 0 0 1 305,420 L305,344 A3,3 0 0 1 308,341 " fill="#FFFFFF" style="stroke: #000000; stroke-width: 1.5;"/><line style="stroke: #000000; stroke-width: 1.5;" x1="305" x2="472" y1="360.9688" y2="360.9688"/><text fill="#000000" font-family="Tahoma, sans-serif" font-size="12" font-weight="bold" lengthAdjust="spacingAndGlyphs" textLength="154" x="309" y="354.1387">Domain value objects</text><!--MD5=[600c2d25b6889bd4e9f6b335204b22ae]
cluster Repositories--><path d="M112,141 L204,141 A4.5,4.5 0 0 1 207,144 L214,160.9688 L266,160.9688 A3,3 0 0 1 269,163.9688 L269,216 A3,3 0 0 1 266,219 L112,219 A3,3 0 0 1 109,216 L109,144 A3,3 0 0 1 112,141 " fill="#FFFFFF" style="stroke: #000000; stroke-width: 1.5;"/><line style="stroke: #000000; stroke-width: 1.5;" x1="109" x2="214" y1="160.9688" y2="160.9688"/><text fill="#000000" font-family="Tahoma, sans-serif" font-size="12" font-weight="bold" lengthAdjust="spacingAndGlyphs" textLength="92" x="113" y="154.1387">Repositories</text><!--MD5=[6326b81c113285a9d7424a8f38b27174]
cluster Usecases--><path d="M318,142 L386,142 A4.5,4.5 0 0 1 389,145 L396,161.9688 L581,161.9688 A3,3 0 0 1 584,164.9688 L584,215 A3,3 0 0 1 581,218 L318,218 A3,3 0 0 1 315,215 L315,145 A3,3 0 0 1 318,142 " fill="#FFFFFF" style="stroke: #000000; stroke-width: 1.5;"/><line style="stroke: #000000; stroke-width: 1.5;" x1="315" x2="396" y1="161.9688" y2="161.9688"/><text fill="#000000" font-family="Tahoma, sans-serif" font-size="12" font-weight="bold" lengthAdjust="spacingAndGlyphs" textLength="68" x="319" y="155.1387">Usecases</text><ellipse cx="531.1393" cy="78.7279" fill="#F8F8F8" rx="86.6393" ry="19.7279" style="stroke: #383838; stroke-width: 0.5;"/><text fill="#000000" font-family="Tahoma, sans-serif" font-size="12" font-weight="bold" lengthAdjust="spacingAndGlyphs" textLength="152" x="455.1393" y="82.2122">AuthorizerController</text><ellipse cx="138.9377" cy="78.5875" fill="#F8F8F8" rx="100.9377" ry="22.5875" style="stroke: #383838; stroke-width: 0.5;"/><text fill="#000000" font-family="Tahoma, sans-serif" font-size="12" font-weight="bold" lengthAdjust="spacingAndGlyphs" textLength="183" x="47.4377" y="82.0719">CreateRecordsController</text><ellipse cx="341.8319" cy="78.3664" fill="#F8F8F8" rx="89.8319" ry="20.3664" style="stroke: #383838; stroke-width: 0.5;"/><text fill="#000000" font-family="Tahoma, sans-serif" font-size="12" font-weight="bold" lengthAdjust="spacingAndGlyphs" textLength="159" x="262.3319" y="81.8508">GetRecordsController</text><ellipse cx="214.7548" cy="287.8774" fill="#F8F8F8" rx="48.2548" ry="12.8774" style="stroke: #383838; stroke-width: 0.5;"/><text fill="#000000" font-family="Tahoma, sans-serif" font-size="12" lengthAdjust="spacingAndGlyphs" textLength="64" x="182.7548" y="291.3618">Catalogist</text><!--MD5=[f00eee0d8599795d6915a015e1c4223a]
entity _Manifest--><rect fill="#F8F8F8" height="33.9688" rx="3" ry="3" style="stroke: #000000; stroke-width: 0.5;" width="72" x="354" y="373"/><text fill="#000000" font-family="Tahoma, sans-serif" font-size="12" lengthAdjust="spacingAndGlyphs" textLength="52" x="364" y="394.1387">Manifest</text><ellipse cx="188.988" cy="188.1976" fill="#F8F8F8" rx="63.988" ry="15.1976" style="stroke: #383838; stroke-width: 0.5;"/><text fill="#000000" font-family="Tahoma, sans-serif" font-size="12" lengthAdjust="spacingAndGlyphs" textLength="100" x="138.988" y="191.682">DynamoDbRepo</text><ellipse cx="389.8944" cy="188.0789" fill="#F8F8F8" rx="58.3944" ry="14.0789" style="stroke: #383838; stroke-width: 0.5;"/><text fill="#000000" font-family="Tahoma, sans-serif" font-size="12" lengthAdjust="spacingAndGlyphs" textLength="86" x="346.8944" y="191.5633">createRecord</text><ellipse cx="514.0152" cy="188.103" fill="#F8F8F8" rx="53.5152" ry="13.103" style="stroke: #383838; stroke-width: 0.5;"/><text fill="#000000" font-family="Tahoma, sans-serif" font-size="12" lengthAdjust="spacingAndGlyphs" textLength="73" x="477.5152" y="191.5874">getRecords</text><!--MD5=[a5ecdc7eb1b040d2c8448e1448da678c]
link createRecord to _Manifest--><path d="M390,202.123 C390,235.958 390,326.4 390,367.7904 " fill="none" id="createRecord-&gt;_Manifest" style="stroke: #000000; stroke-width: 0.5;"/><polygon fill="#000000" points="390,372.8237,394,363.8237,390,367.8237,386,363.8237,390,372.8237" style="stroke: #000000; stroke-width: 0.5;"/><!--MD5=[b87216b48fc0c36f6d11edb873a593b1]
link <b>CreateRecordsController</b> to Catalogist--><path d="M127.083,101.045 C112.152,131.205 91.1337,186.819 114,227 C127.844,251.327 155.871,266.815 178.896,275.949 " fill="none" id="&lt;b&gt;CreateRecordsController&lt;/b&gt;-&gt;Catalogist" style="stroke: #000000; stroke-width: 1.0;"/><polygon fill="#000000" points="183.727,277.802,176.7574,270.8432,179.0589,276.0107,173.8914,278.3122,183.727,277.802" style="stroke: #000000; stroke-width: 1.0;"/><!--MD5=[6a2cb0f25331b1df057bba6a8f20f06b]
link <b>CreateRecordsController</b> to createRecord--><path d="M183.84,98.685 C207.654,108.876 237.419,121.616 264,133 C296.129,146.76 332.861,162.504 358.342,173.427 " fill="none" id="&lt;b&gt;CreateRecordsController&lt;/b&gt;-&gt;createRecord" style="stroke: #000000; stroke-width: 1.0;"/><polygon fill="#000000" points="362.965,175.409,356.2697,168.1859,358.3696,173.4385,353.117,175.5385,362.965,175.409" style="stroke: #000000; stroke-width: 1.0;"/><!--MD5=[59926a0ca8a26532713c4245530c81f6]
link <b>CreateRecordsController</b> to DynamoDbRepo--><path d="M148.998,100.996 C158.193,120.766 171.685,149.773 180.407,168.525 " fill="none" id="&lt;b&gt;CreateRecordsController&lt;/b&gt;-&gt;DynamoDbRepo" style="stroke: #000000; stroke-width: 1.0;"/><polygon fill="#000000" points="182.516,173.059,182.348,163.2116,180.4077,168.5252,175.094,166.5849,182.516,173.059" style="stroke: #000000; stroke-width: 1.0;"/><!--MD5=[5f0bc2a7864ecef9908d7ec658139033]
link <b>GetRecordsController</b> to Catalogist--><path d="M333.078,99.292 C319.674,128.278 292.82,183.547 264,227 C253.448,242.91 239.532,259.624 229.227,271.359 " fill="none" id="&lt;b&gt;GetRecordsController&lt;/b&gt;-&gt;Catalogist" style="stroke: #000000; stroke-width: 1.0;"/><polygon fill="#000000" points="225.881,275.139,234.8422,271.0528,229.1957,271.3957,228.8528,265.7492,225.881,275.139" style="stroke: #000000; stroke-width: 1.0;"/><!--MD5=[cb58df599941a0b45080afb2d116f019]
link <b>GetRecordsController</b> to DynamoDbRepo--><path d="M315.349,98.225 C286.255,118.667 240.123,151.08 212.385,170.569 " fill="none" id="&lt;b&gt;GetRecordsController&lt;/b&gt;-&gt;DynamoDbRepo" style="stroke: #000000; stroke-width: 1.0;"/><polygon fill="#000000" points="208.097,173.582,217.7604,171.6799,212.1878,170.7071,213.1606,165.1345,208.097,173.582" style="stroke: #000000; stroke-width: 1.0;"/><!--MD5=[0f9633652e99d048b56fb93d38cc1101]
link <b>GetRecordsController</b> to getRecords--><path d="M379.763,97.218 C411.933,112.337 453.249,131.823 455,133 C471.567,144.133 488.132,159.79 499.473,171.38 " fill="none" id="&lt;b&gt;GetRecordsController&lt;/b&gt;-&gt;getRecords" style="stroke: #000000; stroke-width: 1.0;"/><polygon fill="#000000" points="503.111,175.142,499.7301,165.8916,499.6352,171.5477,493.9792,171.4528,503.111,175.142" style="stroke: #000000; stroke-width: 1.0;"/><script type="text/plantuml"><![CDATA[MD5=[da663d432852968c236c06ca12bda8fe]
@startuml

scale max 1920 width
top to bottom direction

skinparam nodesep 12
skinparam ranksep 24
skinparam monochrome true
skinparam shadowing false
skinparam defaultFontName Tahoma
skinparam defaultFontSize 12
skinparam roundCorner 6
skinparam dpi 150
skinparam arrowColor black
skinparam arrowThickness 0.5
skinparam packageTitleAlignment left

skinparam usecase {
  borderThickness 0.5
}

skinparam rectangle {
  borderThickness 0.5
}

skinparam component {
  borderThickness 1
}


package "Controllers" {
  (<b>AuthorizerController</b>)
  (<b>CreateRecordsController</b>)
  (<b>GetRecordsController</b>)
}

package "Domain entities" {
  (Catalogist)
}

package "Domain value objects" {
  rectangle "Manifest" as _Manifest
}

package "Repositories" {
  (DynamoDbRepo)
}

package "Usecases" {
  (createRecord)
  (getRecords)
}

(createRecord) ---> _Manifest
(<b>CreateRecordsController</b>) ---[thickness=1]> (Catalogist)
(<b>CreateRecordsController</b>) --[thickness=1]> (createRecord)
(<b>CreateRecordsController</b>) --[thickness=1]> (DynamoDbRepo)
(<b>GetRecordsController</b>) ---[thickness=1]> (Catalogist)
(<b>GetRecordsController</b>) --[thickness=1]> (DynamoDbRepo)
(<b>GetRecordsController</b>) --[thickness=1]> (getRecords)

@enduml


' View and edit on https://arkit.pro
]]></script></g></svg>