<?xml version="1.0" encoding="UTF-8" standalone="no"?><svg xmlns="http://www.w3.org/2000/svg" xmlns:xlink="http://www.w3.org/1999/xlink" contentScriptType="application/ecmascript" contentStyleType="text/css" height="229px" preserveAspectRatio="none" style="width:504px;height:229px;" version="1.1" viewBox="0 0 504 229" width="504px" zoomAndPan="magnify"><defs/><g><!--MD5=[5edfa7121972f9ed9fbf0a4c690ab7d6]
cluster Domain entities--><path d="M25,26 L139,26 A4.5,4.5 0 0 1 142,29 L149,45.9688 L159,45.9688 A3,3 0 0 1 162,48.9688 L162,97 A3,3 0 0 1 159,100 L25,100 A3,3 0 0 1 22,97 L22,29 A3,3 0 0 1 25,26 " fill="#FFFFFF" style="stroke: #000000; stroke-width: 1.5;"/><line style="stroke: #000000; stroke-width: 1.5;" x1="22" x2="149" y1="45.9688" y2="45.9688"/><text fill="#000000" font-family="Tahoma, sans-serif" font-size="12" font-weight="bold" lengthAdjust="spacingAndGlyphs" textLength="114" x="26" y="39.1387">Domain entities</text><!--MD5=[3fe454f5ee662415b72b39d1d24abdcd]
cluster Domain value objects--><path d="M325,135 L479,135 A4.5,4.5 0 0 1 482,138 L489,154.9688 L489,154.9688 A3,3 0 0 1 492,157.9688 L492,214 A3,3 0 0 1 489,217 L325,217 A3,3 0 0 1 322,214 L322,138 A3,3 0 0 1 325,135 " fill="#FFFFFF" style="stroke: #000000; stroke-width: 1.5;"/><line style="stroke: #000000; stroke-width: 1.5;" x1="322" x2="489" y1="154.9688" y2="154.9688"/><text fill="#000000" font-family="Tahoma, sans-serif" font-size="12" font-weight="bold" lengthAdjust="spacingAndGlyphs" textLength="154" x="326" y="148.1387">Domain value objects</text><!--MD5=[6326b81c113285a9d7424a8f38b27174]
cluster Usecases--><path d="M189,24 L257,24 A4.5,4.5 0 0 1 260,27 L267,43.9688 L470,43.9688 A3,3 0 0 1 473,46.9688 L473,99 A3,3 0 0 1 470,102 L189,102 A3,3 0 0 1 186,99 L186,27 A3,3 0 0 1 189,24 " fill="#FFFFFF" style="stroke: #000000; stroke-width: 1.5;"/><line style="stroke: #000000; stroke-width: 1.5;" x1="186" x2="267" y1="43.9688" y2="43.9688"/><text fill="#000000" font-family="Tahoma, sans-serif" font-size="12" font-weight="bold" lengthAdjust="spacingAndGlyphs" textLength="68" x="190" y="37.1387">Usecases</text><ellipse cx="92.2424" cy="71.2485" fill="#F8F8F8" rx="54.2424" ry="13.2485" style="stroke: #383838; stroke-width: 0.5;"/><text fill="#000000" font-family="Tahoma, sans-serif" font-size="12" font-weight="bold" lengthAdjust="spacingAndGlyphs" textLength="75" x="54.7424" y="74.7329">Catalogist</text><!--MD5=[f00eee0d8599795d6915a015e1c4223a]
entity _Manifest--><rect fill="#F8F8F8" height="33.9688" rx="3" ry="3" style="stroke: #000000; stroke-width: 0.5;" width="72" x="357" y="167"/><text fill="#000000" font-family="Tahoma, sans-serif" font-size="12" lengthAdjust="spacingAndGlyphs" textLength="52" x="367" y="188.1387">Manifest</text><ellipse cx="392.988" cy="71.1976" fill="#F8F8F8" rx="63.988" ry="15.1976" style="stroke: #383838; stroke-width: 0.5;"/><text fill="#000000" font-family="Tahoma, sans-serif" font-size="12" font-weight="bold" lengthAdjust="spacingAndGlyphs" textLength="100" x="342.988" y="74.682">createRecord</text><ellipse cx="260.1218" cy="70.9244" fill="#F8F8F8" rx="57.6218" ry="13.9244" style="stroke: #383838; stroke-width: 0.5;"/><text fill="#000000" font-family="Tahoma, sans-serif" font-size="12" font-weight="bold" lengthAdjust="spacingAndGlyphs" textLength="84" x="218.1218" y="74.4087">getRecords</text><!--MD5=[9c20dc76209a8dcb1c6be305e46b49f2]
link <b>createRecord</b> to _Manifest--><path d="M393,86.058 C393,105.177 393,139.5388 393,161.7966 " fill="none" id="&lt;b&gt;createRecord&lt;/b&gt;-&gt;_Manifest" style="stroke: #000000; stroke-width: 1.0;"/><polygon fill="#000000" points="393,166.9023,397,157.9023,393,161.9023,389,157.9023,393,166.9023" style="stroke: #000000; stroke-width: 1.0;"/><script type="text/plantuml"><![CDATA[MD5=[43a3e33c2da01c3b51d5622a77dd9ce3]
@startuml

scale max 1920 width
top to bottom direction

skinparam nodesep 11
skinparam ranksep 22
skinparam monochrome true
skinparam shadowing false
skinparam defaultFontName Tahoma
skinparam defaultFontSize 12
skinparam roundCorner 6
skinparam dpi 150
skinparam arrowColor black
skinparam arrowThickness 0.5
skinparam packageTitleAlignment left

skinparam usecase {
  borderThickness 0.5
}

skinparam rectangle {
  borderThickness 0.5
}

skinparam component {
  borderThickness 1
}



package "Domain entities" {
  (<b>Catalogist</b>)
}

package "Domain value objects" {
  rectangle "Manifest" as _Manifest
}


package "Usecases" {
  (<b>createRecord</b>)
  (<b>getRecords</b>)
}

(<b>createRecord</b>) ---[thickness=1]> _Manifest

@enduml


' View and edit on https://arkit.pro
]]></script></g></svg>