<?xml version="1.0" encoding="UTF-8" standalone="no"?><svg xmlns="http://www.w3.org/2000/svg" xmlns:xlink="http://www.w3.org/1999/xlink" contentScriptType="application/ecmascript" contentStyleType="text/css" height="442px" preserveAspectRatio="none" style="width:465px;height:442px;" version="1.1" viewBox="0 0 465 442" width="465px" zoomAndPan="magnify"><defs/><g><!--MD5=[aedc30b8666742a3000193d7e0a0b93e]
cluster Adapters--><path d="M68,24 L135,24 A4.5,4.5 0 0 1 138,27 L145,43.9688 L358,43.9688 A3,3 0 0 1 361,46.9688 L361,101 A3,3 0 0 1 358,104 L68,104 A3,3 0 0 1 65,101 L65,27 A3,3 0 0 1 68,24 " fill="#FFFFFF" style="stroke: #000000; stroke-width: 1.5;"/><line style="stroke: #000000; stroke-width: 1.5;" x1="65" x2="145" y1="43.9688" y2="43.9688"/><text fill="#000000" font-family="Tahoma, sans-serif" font-size="12" font-weight="bold" lengthAdjust="spacingAndGlyphs" textLength="67" x="69" y="37.1387">Adapters</text><!--MD5=[5edfa7121972f9ed9fbf0a4c690ab7d6]
cluster Domain entities--><path d="M132,352 L246,352 A4.5,4.5 0 0 1 249,355 L256,371.9688 L256,371.9688 A3,3 0 0 1 259,374.9688 L259,423 A3,3 0 0 1 256,426 L132,426 A3,3 0 0 1 129,423 L129,355 A3,3 0 0 1 132,352 " fill="#FFFFFF" style="stroke: #000000; stroke-width: 1.5;"/><line style="stroke: #000000; stroke-width: 1.5;" x1="129" x2="256" y1="371.9688" y2="371.9688"/><text fill="#000000" font-family="Tahoma, sans-serif" font-size="12" font-weight="bold" lengthAdjust="spacingAndGlyphs" textLength="114" x="133" y="365.1387">Domain entities</text><!--MD5=[3fe454f5ee662415b72b39d1d24abdcd]
cluster Domain value objects--><path d="M286,348 L440,348 A4.5,4.5 0 0 1 443,351 L450,367.9688 L450,367.9688 A3,3 0 0 1 453,370.9688 L453,427 A3,3 0 0 1 450,430 L286,430 A3,3 0 0 1 283,427 L283,351 A3,3 0 0 1 286,348 " fill="#FFFFFF" style="stroke: #000000; stroke-width: 1.5;"/><line style="stroke: #000000; stroke-width: 1.5;" x1="283" x2="450" y1="367.9688" y2="367.9688"/><text fill="#000000" font-family="Tahoma, sans-serif" font-size="12" font-weight="bold" lengthAdjust="spacingAndGlyphs" textLength="154" x="287" y="361.1387">Domain value objects</text><!--MD5=[600c2d25b6889bd4e9f6b335204b22ae]
cluster Repositories--><path d="M25,137 L117,137 A4.5,4.5 0 0 1 120,140 L127,156.9688 L179,156.9688 A3,3 0 0 1 182,159.9688 L182,212 A3,3 0 0 1 179,215 L25,215 A3,3 0 0 1 22,212 L22,140 A3,3 0 0 1 25,137 " fill="#FFFFFF" style="stroke: #000000; stroke-width: 1.5;"/><line style="stroke: #000000; stroke-width: 1.5;" x1="22" x2="127" y1="156.9688" y2="156.9688"/><text fill="#000000" font-family="Tahoma, sans-serif" font-size="12" font-weight="bold" lengthAdjust="spacingAndGlyphs" textLength="92" x="26" y="150.1387">Repositories</text><!--MD5=[6326b81c113285a9d7424a8f38b27174]
cluster Usecases--><path d="M122,239 L190,239 A4.5,4.5 0 0 1 193,242 L200,258.9688 L385,258.9688 A3,3 0 0 1 388,261.9688 L388,312 A3,3 0 0 1 385,315 L122,315 A3,3 0 0 1 119,312 L119,242 A3,3 0 0 1 122,239 " fill="#FFFFFF" style="stroke: #000000; stroke-width: 1.5;"/><line style="stroke: #000000; stroke-width: 1.5;" x1="119" x2="200" y1="258.9688" y2="258.9688"/><text fill="#000000" font-family="Tahoma, sans-serif" font-size="12" font-weight="bold" lengthAdjust="spacingAndGlyphs" textLength="68" x="123" y="252.1387">Usecases</text><ellipse cx="149.2286" cy="71.9457" fill="#F8F8F8" rx="67.7286" ry="15.9457" style="stroke: #383838; stroke-width: 0.5;"/><text fill="#000000" font-family="Tahoma, sans-serif" font-size="12" font-weight="bold" lengthAdjust="spacingAndGlyphs" textLength="109" x="94.7286" y="75.4301">CreateRecords</text><ellipse cx="287.0072" cy="72.0014" fill="#F8F8F8" rx="58.0072" ry="14.0014" style="stroke: #383838; stroke-width: 0.5;"/><text fill="#000000" font-family="Tahoma, sans-serif" font-size="12" font-weight="bold" lengthAdjust="spacingAndGlyphs" textLength="85" x="244.5072" y="75.4858">GetRecords</text><ellipse cx="193.7548" cy="396.8774" fill="#F8F8F8" rx="48.2548" ry="12.8774" style="stroke: #383838; stroke-width: 0.5;"/><text fill="#000000" font-family="Tahoma, sans-serif" font-size="12" lengthAdjust="spacingAndGlyphs" textLength="64" x="161.7548" y="400.3618">Catalogist</text><!--MD5=[f00eee0d8599795d6915a015e1c4223a]
entity _Manifest--><rect fill="#F8F8F8" height="33.9688" rx="3" ry="3" style="stroke: #000000; stroke-width: 0.5;" width="72" x="299" y="380"/><text fill="#000000" font-family="Tahoma, sans-serif" font-size="12" lengthAdjust="spacingAndGlyphs" textLength="52" x="309" y="401.1387">Manifest</text><ellipse cx="101.988" cy="184.1976" fill="#F8F8F8" rx="63.988" ry="15.1976" style="stroke: #383838; stroke-width: 0.5;"/><text fill="#000000" font-family="Tahoma, sans-serif" font-size="12" lengthAdjust="spacingAndGlyphs" textLength="100" x="51.988" y="187.682">DynamoDbRepo</text><ellipse cx="193.8944" cy="285.0789" fill="#F8F8F8" rx="58.3944" ry="14.0789" style="stroke: #383838; stroke-width: 0.5;"/><text fill="#000000" font-family="Tahoma, sans-serif" font-size="12" lengthAdjust="spacingAndGlyphs" textLength="86" x="150.8944" y="288.5633">createRecord</text><ellipse cx="318.0152" cy="285.103" fill="#F8F8F8" rx="53.5152" ry="13.103" style="stroke: #383838; stroke-width: 0.5;"/><text fill="#000000" font-family="Tahoma, sans-serif" font-size="12" lengthAdjust="spacingAndGlyphs" textLength="73" x="281.5152" y="288.5874">getRecords</text><!--MD5=[ddfa77b7fc95038ecac62cc5bc05b8bd]
link createRecord to Catalogist--><path d="M194,299.05 C194,318.882 194,356.6276 194,378.7163 " fill="none" id="createRecord-&gt;Catalogist" style="stroke: #000000; stroke-width: 0.5;"/><polygon fill="#000000" points="194,383.9743,198,374.9743,194,378.9743,190,374.9743,194,383.9743" style="stroke: #000000; stroke-width: 0.5;"/><!--MD5=[a5ecdc7eb1b040d2c8448e1448da678c]
link createRecord to _Manifest--><path d="M210.174,298.618 C234.719,317.767 281.554,354.3048 310.355,376.7737 " fill="none" id="createRecord-&gt;_Manifest" style="stroke: #000000; stroke-width: 0.5;"/><polygon fill="#000000" points="314.469,379.983,309.8338,371.2931,310.5269,376.9073,304.9127,377.6005,314.469,379.983" style="stroke: #000000; stroke-width: 0.5;"/><!--MD5=[bea266a8e938efc20de2955a7e178960]
link <b>CreateRecords</b> to createRecord--><path d="M158.389,88.082 C164.729,99.023 172.7,114.402 177,129 C191.113,176.915 193.713,236.282 194.065,265.7 " fill="none" id="&lt;b&gt;CreateRecords&lt;/b&gt;-&gt;createRecord" style="stroke: #000000; stroke-width: 1.0;"/><polygon fill="#000000" points="194.107,270.836,198.0323,261.8032,194.0656,265.8362,190.0326,261.8695,194.107,270.836" style="stroke: #000000; stroke-width: 1.0;"/><!--MD5=[0f812c1064dcfd02aa36fa565f47e097]
link <b>CreateRecords</b> to DynamoDbRepo--><path d="M142.465,88.295 C133.976,108.162 119.163,142.83 110.008,164.257 " fill="none" id="&lt;b&gt;CreateRecords&lt;/b&gt;-&gt;DynamoDbRepo" style="stroke: #000000; stroke-width: 1.0;"/><polygon fill="#000000" points="108.033,168.88,115.2476,162.1755,109.9976,164.2821,107.891,159.0322,108.033,168.88" style="stroke: #000000; stroke-width: 1.0;"/><!--MD5=[f3126b9942635fc65c4e1bdcd651888b]
link getRecords to Catalogist--><path d="M304.73,297.772 C282.075,317.869 235.972,358.767 210.995,380.9237 " fill="none" id="getRecords-&gt;Catalogist" style="stroke: #000000; stroke-width: 0.5;"/><polygon fill="#000000" points="207.175,384.3127,216.5625,381.3337,210.9158,380.9951,211.2544,375.3484,207.175,384.3127" style="stroke: #000000; stroke-width: 0.5;"/><!--MD5=[d15126dda52e0850772f522e884880ae]
link <b>GetRecords</b> to DynamoDbRepo--><path d="M266.817,85.153 C253.993,92.864 237.036,103.041 222,112 C190.09,131.013 153.319,152.743 128.98,167.101 " fill="none" id="&lt;b&gt;GetRecords&lt;/b&gt;-&gt;DynamoDbRepo" style="stroke: #000000; stroke-width: 1.0;"/><polygon fill="#000000" points="124.584,169.694,134.3683,168.5678,128.8909,167.1542,130.3045,161.6768,124.584,169.694" style="stroke: #000000; stroke-width: 1.0;"/><!--MD5=[7cc714e093ab74f4dbbd2e7b535b9d94]
link <b>GetRecords</b> to getRecords--><path d="M288.939,86.199 C294.318,122.809 309.425,225.632 315.461,266.72 " fill="none" id="&lt;b&gt;GetRecords&lt;/b&gt;-&gt;getRecords" style="stroke: #000000; stroke-width: 1.0;"/><polygon fill="#000000" points="316.218,271.869,318.8667,262.383,315.4909,266.9221,310.9517,263.5463,316.218,271.869" style="stroke: #000000; stroke-width: 1.0;"/><script type="text/plantuml"><![CDATA[MD5=[d84e2445f483fef77219f1dd9aa543bc]
@startuml

scale max 1920 width
top to bottom direction

skinparam nodesep 12
skinparam ranksep 24
skinparam monochrome true
skinparam shadowing false
skinparam defaultFontName Tahoma
skinparam defaultFontSize 12
skinparam roundCorner 6
skinparam dpi 150
skinparam arrowColor black
skinparam arrowThickness 0.5
skinparam packageTitleAlignment left

skinparam usecase {
  borderThickness 0.5
}

skinparam rectangle {
  borderThickness 0.5
}

skinparam component {
  borderThickness 1
}


package "Adapters" {
  (<b>CreateRecords</b>)
  (<b>GetRecords</b>)
}

package "Domain entities" {
  (Catalogist)
}

package "Domain value objects" {
  rectangle "Manifest" as _Manifest
}

package "Repositories" {
  (DynamoDbRepo)
}

package "Usecases" {
  (createRecord)
  (getRecords)
}

(createRecord) ---> (Catalogist)
(createRecord) ---> _Manifest
(<b>CreateRecords</b>) ----[thickness=1]> (createRecord)
(<b>CreateRecords</b>) ---[thickness=1]> (DynamoDbRepo)
(getRecords) ---> (Catalogist)
(<b>GetRecords</b>) ---[thickness=1]> (DynamoDbRepo)
(<b>GetRecords</b>) ----[thickness=1]> (getRecords)

@enduml


' View and edit on https://arkit.pro
]]></script></g></svg>